<mxfile host="65bd71144e">
    <diagram id="JZVkXsj42aGPCmXkO_WA" name="Page-1">
        <mxGraphModel dx="654" dy="584" grid="1" gridSize="10" guides="1" tooltips="1" connect="1" arrows="1" fold="1" page="0" pageScale="1" pageWidth="1920" pageHeight="1200" background="none" math="0" shadow="0">
            <root>
                <mxCell id="0"/>
                <mxCell id="1" parent="0"/>
                <mxCell id="2" value="Film" style="rounded=0;whiteSpace=wrap;html=1;fontSize=16;fontFamily=Comic Sans MS;" parent="1" vertex="1">
                    <mxGeometry x="120" y="160" width="120" height="60" as="geometry"/>
                </mxCell>
                <mxCell id="4" value="" style="edgeStyle=none;html=1;strokeWidth=5;endArrow=none;endFill=0;fontSize=16;fontFamily=Comic Sans MS;" parent="1" source="3" target="2" edge="1">
                    <mxGeometry relative="1" as="geometry"/>
                </mxCell>
                <mxCell id="3" value="title" style="ellipse;whiteSpace=wrap;html=1;fontSize=16;fontFamily=Comic Sans MS;" parent="1" vertex="1">
                    <mxGeometry x="120" y="40" width="120" height="80" as="geometry"/>
                </mxCell>
                <mxCell id="6" value="" style="edgeStyle=none;html=1;strokeWidth=5;endArrow=none;endFill=0;fontSize=16;fontFamily=Comic Sans MS;" parent="1" source="5" target="2" edge="1">
                    <mxGeometry relative="1" as="geometry"/>
                </mxCell>
                <mxCell id="5" value="&lt;u style=&quot;font-size: 16px;&quot;&gt;&lt;b style=&quot;font-size: 16px;&quot;&gt;ID&lt;/b&gt;&lt;/u&gt;" style="ellipse;whiteSpace=wrap;html=1;fillColor=#2a2a2a;fontSize=16;fontFamily=Comic Sans MS;" parent="1" vertex="1">
                    <mxGeometry x="-70" y="150" width="120" height="80" as="geometry"/>
                </mxCell>
                <mxCell id="8" value="" style="edgeStyle=none;html=1;startArrow=none;startFill=0;endArrow=none;endFill=0;fontSize=16;fontFamily=Comic Sans MS;" parent="1" source="7" target="2" edge="1">
                    <mxGeometry relative="1" as="geometry"/>
                </mxCell>
                <mxCell id="7" value="runtime" style="ellipse;whiteSpace=wrap;html=1;fillColor=#2a2a2a;fontSize=16;fontFamily=Comic Sans MS;" parent="1" vertex="1">
                    <mxGeometry x="120" y="280" width="120" height="80" as="geometry"/>
                </mxCell>
                <mxCell id="10" value="" style="edgeStyle=none;html=1;endArrow=none;endFill=0;fontSize=16;fontFamily=Comic Sans MS;" parent="1" source="9" target="2" edge="1">
                    <mxGeometry relative="1" as="geometry"/>
                </mxCell>
                <mxCell id="12" value="" style="edgeStyle=none;html=1;strokeWidth=5;endArrow=none;endFill=0;startArrow=block;startFill=1;fontSize=16;fontFamily=Comic Sans MS;" parent="1" source="9" target="11" edge="1">
                    <mxGeometry relative="1" as="geometry"/>
                </mxCell>
                <mxCell id="9" value="features" style="rhombus;whiteSpace=wrap;html=1;fillColor=#2a2a2a;fontSize=16;fontFamily=Comic Sans MS;" parent="1" vertex="1">
                    <mxGeometry x="320" y="150" width="160" height="80" as="geometry"/>
                </mxCell>
                <mxCell id="14" value="" style="edgeStyle=none;html=1;fontSize=16;fontFamily=Comic Sans MS;" parent="1" source="11" target="13" edge="1">
                    <mxGeometry relative="1" as="geometry"/>
                </mxCell>
                <mxCell id="22" value="" style="edgeStyle=none;html=1;strokeWidth=5;endArrow=none;endFill=0;fontSize=16;fontFamily=Comic Sans MS;" parent="1" source="11" target="21" edge="1">
                    <mxGeometry relative="1" as="geometry"/>
                </mxCell>
                <mxCell id="24" value="" style="edgeStyle=none;html=1;startArrow=none;startFill=0;endArrow=none;endFill=0;fontSize=16;fontFamily=Comic Sans MS;" parent="1" source="11" target="23" edge="1">
                    <mxGeometry relative="1" as="geometry"/>
                </mxCell>
                <mxCell id="26" value="" style="edgeStyle=none;html=1;startArrow=none;startFill=0;endArrow=none;endFill=0;fontSize=16;fontFamily=Comic Sans MS;" parent="1" source="11" target="25" edge="1">
                    <mxGeometry relative="1" as="geometry"/>
                </mxCell>
                <mxCell id="11" value="Event" style="whiteSpace=wrap;html=1;fontSize=16;fontFamily=Comic Sans MS;" parent="1" vertex="1">
                    <mxGeometry x="580" y="160" width="120" height="60" as="geometry"/>
                </mxCell>
                <mxCell id="16" value="" style="edgeStyle=none;html=1;startArrow=none;startFill=0;endArrow=none;endFill=0;fontSize=16;fontFamily=Comic Sans MS;" parent="1" source="13" target="15" edge="1">
                    <mxGeometry relative="1" as="geometry"/>
                </mxCell>
                <mxCell id="13" value="shown in" style="rhombus;whiteSpace=wrap;html=1;fontSize=16;fontFamily=Comic Sans MS;" parent="1" vertex="1">
                    <mxGeometry x="560" width="160" height="70" as="geometry"/>
                </mxCell>
                <mxCell id="18" value="" style="edgeStyle=none;html=1;strokeWidth=5;endArrow=none;endFill=0;fontSize=16;fontFamily=Comic Sans MS;" parent="1" source="15" target="17" edge="1">
                    <mxGeometry relative="1" as="geometry"/>
                </mxCell>
                <mxCell id="20" value="" style="edgeStyle=none;html=1;fontSize=16;fontFamily=Comic Sans MS;" parent="1" source="15" target="19" edge="1">
                    <mxGeometry relative="1" as="geometry"/>
                </mxCell>
                <mxCell id="50" value="" style="edgeStyle=none;html=1;strokeWidth=5;endArrow=none;endFill=0;fontSize=16;fontFamily=Comic Sans MS;" parent="1" source="15" target="49" edge="1">
                    <mxGeometry relative="1" as="geometry"/>
                </mxCell>
                <mxCell id="15" value="Auditorium" style="whiteSpace=wrap;html=1;fontSize=16;fontFamily=Comic Sans MS;" parent="1" vertex="1">
                    <mxGeometry x="580" y="-145" width="120" height="60" as="geometry"/>
                </mxCell>
                <mxCell id="17" value="&lt;b style=&quot;font-size: 16px;&quot;&gt;&lt;u style=&quot;font-size: 16px;&quot;&gt;ID&lt;/u&gt;&lt;/b&gt;" style="ellipse;whiteSpace=wrap;html=1;fontSize=16;fontFamily=Comic Sans MS;" parent="1" vertex="1">
                    <mxGeometry x="380" y="-145" width="120" height="60" as="geometry"/>
                </mxCell>
                <mxCell id="19" value="capacity" style="ellipse;whiteSpace=wrap;html=1;fontSize=16;fontFamily=Comic Sans MS;" parent="1" vertex="1">
                    <mxGeometry x="780" y="-145" width="120" height="60" as="geometry"/>
                </mxCell>
                <mxCell id="21" value="&lt;b style=&quot;font-size: 16px;&quot;&gt;&lt;u style=&quot;font-size: 16px;&quot;&gt;ID&lt;/u&gt;&lt;/b&gt;" style="ellipse;whiteSpace=wrap;html=1;fontSize=16;fontFamily=Comic Sans MS;" parent="1" vertex="1">
                    <mxGeometry x="790" y="60" width="120" height="60" as="geometry"/>
                </mxCell>
                <mxCell id="23" value="show_time" style="ellipse;whiteSpace=wrap;html=1;fontSize=16;fontFamily=Comic Sans MS;" parent="1" vertex="1">
                    <mxGeometry x="780" y="160" width="120" height="60" as="geometry"/>
                </mxCell>
                <mxCell id="28" value="" style="edgeStyle=none;html=1;strokeWidth=5;endArrow=none;endFill=0;fontSize=16;fontFamily=Comic Sans MS;" parent="1" source="25" target="27" edge="1">
                    <mxGeometry relative="1" as="geometry"/>
                </mxCell>
                <mxCell id="30" value="" style="edgeStyle=none;html=1;startArrow=none;startFill=0;endArrow=none;endFill=0;fontSize=16;fontFamily=Comic Sans MS;" parent="1" source="25" target="29" edge="1">
                    <mxGeometry relative="1" as="geometry"/>
                </mxCell>
                <mxCell id="25" value="purchased by" style="rhombus;whiteSpace=wrap;html=1;fontSize=16;fontFamily=Comic Sans MS;" parent="1" vertex="1">
                    <mxGeometry x="560" y="280" width="160" height="120" as="geometry"/>
                </mxCell>
                <mxCell id="27" value="price" style="ellipse;whiteSpace=wrap;html=1;fontSize=16;fontFamily=Comic Sans MS;" parent="1" vertex="1">
                    <mxGeometry x="820" y="310" width="120" height="60" as="geometry"/>
                </mxCell>
                <mxCell id="36" value="" style="edgeStyle=none;html=1;strokeWidth=5;endArrow=none;endFill=0;fontSize=16;fontFamily=Comic Sans MS;" parent="1" source="29" target="35" edge="1">
                    <mxGeometry relative="1" as="geometry"/>
                </mxCell>
                <mxCell id="38" value="" style="edgeStyle=none;html=1;strokeWidth=5;endArrow=none;endFill=0;fontSize=16;fontFamily=Comic Sans MS;" parent="1" source="29" target="37" edge="1">
                    <mxGeometry relative="1" as="geometry"/>
                </mxCell>
                <mxCell id="40" value="" style="edgeStyle=none;html=1;fontSize=16;fontFamily=Comic Sans MS;" parent="1" source="29" target="39" edge="1">
                    <mxGeometry relative="1" as="geometry"/>
                </mxCell>
                <mxCell id="29" value="Customer" style="whiteSpace=wrap;html=1;fontSize=16;fontFamily=Comic Sans MS;" parent="1" vertex="1">
                    <mxGeometry x="580" y="510" width="120" height="60" as="geometry"/>
                </mxCell>
                <mxCell id="35" value="&lt;b style=&quot;font-size: 16px;&quot;&gt;&lt;u style=&quot;font-size: 16px;&quot;&gt;ID&lt;/u&gt;&lt;/b&gt;" style="ellipse;whiteSpace=wrap;html=1;fontSize=16;fontFamily=Comic Sans MS;" parent="1" vertex="1">
                    <mxGeometry x="380" y="510" width="120" height="60" as="geometry"/>
                </mxCell>
                <mxCell id="37" value="name" style="ellipse;whiteSpace=wrap;html=1;fontSize=16;fontFamily=Comic Sans MS;" parent="1" vertex="1">
                    <mxGeometry x="780" y="510" width="120" height="60" as="geometry"/>
                </mxCell>
                <mxCell id="42" value="" style="edgeStyle=none;html=1;endArrow=none;endFill=0;startArrow=block;startFill=1;strokeWidth=5;fontSize=16;fontFamily=Comic Sans MS;" parent="1" source="39" target="41" edge="1">
                    <mxGeometry relative="1" as="geometry"/>
                </mxCell>
                <mxCell id="39" value="has a" style="rhombus;whiteSpace=wrap;html=1;fontSize=16;fontFamily=Comic Sans MS;" parent="1" vertex="1">
                    <mxGeometry x="560" y="640" width="160" height="80" as="geometry"/>
                </mxCell>
                <mxCell id="44" value="" style="edgeStyle=none;html=1;strokeWidth=5;endArrow=none;endFill=0;fontSize=16;fontFamily=Comic Sans MS;" parent="1" source="41" target="43" edge="1">
                    <mxGeometry relative="1" as="geometry"/>
                </mxCell>
                <mxCell id="46" value="" style="edgeStyle=none;html=1;strokeWidth=5;endArrow=none;endFill=0;fontSize=16;fontFamily=Comic Sans MS;" parent="1" source="41" target="45" edge="1">
                    <mxGeometry relative="1" as="geometry"/>
                </mxCell>
                <mxCell id="48" value="" style="edgeStyle=none;html=1;strokeWidth=5;endArrow=none;endFill=0;fontSize=16;fontFamily=Comic Sans MS;" parent="1" source="41" target="47" edge="1">
                    <mxGeometry relative="1" as="geometry"/>
                </mxCell>
                <mxCell id="41" value="Account" style="whiteSpace=wrap;html=1;fontSize=16;fontFamily=Comic Sans MS;" parent="1" vertex="1">
                    <mxGeometry x="580" y="810" width="120" height="60" as="geometry"/>
                </mxCell>
                <mxCell id="43" value="&lt;b style=&quot;font-size: 16px&quot;&gt;&lt;span style=&quot;font-size: 16px&quot;&gt;&lt;u&gt;ID&lt;/u&gt;&lt;/span&gt;&lt;/b&gt;" style="ellipse;whiteSpace=wrap;html=1;fontSize=16;fontFamily=Comic Sans MS;" parent="1" vertex="1">
                    <mxGeometry x="380" y="810" width="120" height="60" as="geometry"/>
                </mxCell>
                <mxCell id="45" value="password" style="ellipse;whiteSpace=wrap;html=1;fontSize=16;fontFamily=Comic Sans MS;" parent="1" vertex="1">
                    <mxGeometry x="780" y="810" width="120" height="60" as="geometry"/>
                </mxCell>
                <mxCell id="47" value="&lt;u style=&quot;font-size: 16px;&quot;&gt;username&lt;/u&gt;" style="ellipse;whiteSpace=wrap;html=1;fontSize=16;fontFamily=Comic Sans MS;" parent="1" vertex="1">
                    <mxGeometry x="580" y="950" width="120" height="60" as="geometry"/>
                </mxCell>
                <mxCell id="49" value="capacity" style="whiteSpace=wrap;html=1;fontSize=16;fontFamily=Comic Sans MS;" parent="1" vertex="1">
                    <mxGeometry x="780" y="-145" width="120" height="60" as="geometry"/>
                </mxCell>
            </root>
        </mxGraphModel>
    </diagram>
</mxfile>